# MagicaVoxel @ ephtracy

# material
mtllib Cherry.mtl
usemtl palette

# normals
vn -1 0 0
vn 1 0 0
vn 0 0 1
vn 0 0 -1
vn 0 -1 0
vn 0 1 0

# texcoords
vt 0.0488281 0.5
vt 0.146484 0.5
vt 0.369141 0.5

# verts
v -6.5 0 5
v -6.5 0 2
v -6.5 1 5
v -6.5 1 2
v -5.5 0 6
v -5.5 0 5
v -5.5 0 2
v -5.5 0 1
v -5.5 0 -2
v -5.5 0 -5
v -5.5 1 6
v -5.5 1 5
v -5.5 1 3
v -5.5 1 2
v -5.5 1 1
v -5.5 1 -2
v -5.5 1 -5
v -5.5 2 5
v -5.5 2 3
v -5.5 2 2
v -4.5 0 -1
v -4.5 0 -2
v -4.5 0 -5
v -4.5 0 -6
v -4.5 1 -1
v -4.5 1 -2
v -4.5 1 -4
v -4.5 1 -5
v -4.5 1 -6
v -4.5 2 -2
v -4.5 2 -4
v -4.5 2 -5
v -0.5 0 3
v -0.5 0 2
v -0.5 1 3
v -0.5 1 2
v 0.5 0 2
v 0.5 0 1
v 0.5 0 -1
v 0.5 0 -2
v 0.5 1 2
v 0.5 1 1
v 0.5 1 -1
v 0.5 1 -2
v 1.5 0 1
v 1.5 0 -1
v 1.5 1 2
v 1.5 1 1
v 1.5 1 -1
v 1.5 2 2
v 1.5 2 1
v 2.5 1 1
v 2.5 1 -0
v 2.5 2 1
v 2.5 2 -0
v 3.5 1 4
v 3.5 1 2
v 3.5 2 4
v 3.5 2 2
v 4.5 2 5
v 4.5 2 4
v 4.5 2 2
v 4.5 3 5
v 4.5 3 2
v -2.5 0 6
v -2.5 0 5
v -2.5 0 2
v -2.5 0 1
v -2.5 1 6
v -2.5 1 5
v -2.5 1 2
v -2.5 1 1
v -2.5 2 5
v -2.5 2 2
v -1.5 0 5
v -1.5 0 4
v -1.5 0 3
v -1.5 0 2
v -1.5 0 -1
v -1.5 0 -2
v -1.5 0 -5
v -1.5 0 -6
v -1.5 1 5
v -1.5 1 4
v -1.5 1 3
v -1.5 1 2
v -1.5 1 -1
v -1.5 1 -2
v -1.5 1 -5
v -1.5 1 -6
v -1.5 2 -2
v -1.5 2 -5
v -0.5 0 -4
v -0.5 0 -5
v -0.5 1 -4
v -0.5 1 -5
v 0.5 0 4
v 0.5 0 3
v 0.5 0 -3
v 0.5 0 -4
v 0.5 1 4
v 0.5 1 3
v 0.5 1 -3
v 0.5 1 -4
v 1.5 0 3
v 1.5 0 2
v 1.5 0 -2
v 1.5 0 -3
v 1.5 1 3
v 1.5 1 2
v 1.5 1 -2
v 1.5 1 -3
v 2.5 0 2
v 2.5 0 1
v 2.5 0 -0
v 2.5 0 -2
v 2.5 1 2
v 2.5 1 1
v 2.5 1 -0
v 2.5 1 -2
v 3.5 0 1
v 3.5 0 -0
v 3.5 1 1
v 3.5 2 1
v 3.5 2 -0
v 4.5 1 2
v 4.5 1 1
v 4.5 2 2
v 4.5 2 1
v 5.5 1 4
v 5.5 1 2
v 5.5 2 4
v 5.5 2 3
v 5.5 3 3
v 5.5 3 2
v 6.5 2 5
v 6.5 2 3
v 6.5 3 5
v 6.5 3 3
v -5.5 0 6
v -5.5 1 6
v -2.5 0 6
v -2.5 1 6
v -6.5 0 5
v -6.5 1 5
v -5.5 0 5
v -5.5 1 5
v -5.5 2 5
v -2.5 0 5
v -2.5 1 5
v -2.5 2 5
v -1.5 0 5
v -1.5 1 5
v 4.5 2 5
v 4.5 3 5
v 6.5 2 5
v 6.5 3 5
v -1.5 0 4
v -1.5 1 4
v 0.5 0 4
v 0.5 1 4
v 3.5 1 4
v 3.5 2 4
v 4.5 2 4
v 5.5 1 4
v 5.5 2 4
v 0.5 0 3
v 0.5 1 3
v 1.5 0 3
v 1.5 1 3
v 1.5 0 2
v 1.5 1 2
v 1.5 2 2
v 2.5 0 2
v 2.5 1 2
v 3.5 1 2
v 3.5 2 2
v 2.5 0 1
v 2.5 1 1
v 3.5 0 1
v 3.5 1 1
v -4.5 0 -1
v -4.5 1 -1
v -1.5 0 -1
v -1.5 1 -1
v 0.5 0 -1
v 0.5 1 -1
v 1.5 0 -1
v 1.5 1 -1
v -5.5 0 -2
v -5.5 1 -2
v -4.5 0 -2
v -4.5 1 -2
v -4.5 2 -2
v -1.5 0 -2
v -1.5 1 -2
v -1.5 2 -2
v -0.5 0 -2
v -0.5 1 -2
v 0.5 0 -2
v 0.5 1 -2
v -1.5 0 3
v -1.5 1 3
v -0.5 0 3
v -0.5 1 3
v 5.5 2 3
v 5.5 3 3
v 6.5 2 3
v 6.5 3 3
v -6.5 0 2
v -6.5 1 2
v -5.5 0 2
v -5.5 1 2
v -5.5 2 2
v -4.5 1 2
v -4.5 2 2
v -2.5 0 2
v -2.5 1 2
v -2.5 2 2
v -1.5 0 2
v -1.5 1 2
v -0.5 0 2
v -0.5 1 2
v 0.5 0 2
v 0.5 1 2
v 4.5 1 2
v 4.5 2 2
v 4.5 3 2
v 5.5 1 2
v 5.5 3 2
v -5.5 0 1
v -5.5 1 1
v -2.5 0 1
v -2.5 1 1
v 0.5 0 1
v 0.5 1 1
v 1.5 0 1
v 1.5 1 1
v 1.5 2 1
v 2.5 1 1
v 2.5 2 1
v 3.5 1 1
v 3.5 2 1
v 4.5 1 1
v 4.5 2 1
v 2.5 0 -0
v 2.5 1 -0
v 2.5 2 -0
v 3.5 0 -0
v 3.5 2 -0
v 1.5 0 -2
v 1.5 1 -2
v 2.5 0 -2
v 2.5 1 -2
v 0.5 0 -3
v 0.5 1 -3
v 1.5 0 -3
v 1.5 1 -3
v -0.5 0 -4
v -0.5 1 -4
v 0.5 0 -4
v 0.5 1 -4
v -5.5 0 -5
v -5.5 1 -5
v -4.5 0 -5
v -4.5 1 -5
v -4.5 2 -5
v -3.5 1 -5
v -3.5 2 -5
v -1.5 0 -5
v -1.5 1 -5
v -1.5 2 -5
v -0.5 0 -5
v -0.5 1 -5
v -4.5 0 -6
v -4.5 1 -6
v -1.5 0 -6
v -1.5 1 -6
v -5.5 0 6
v -2.5 0 6
v -6.5 0 5
v -5.5 0 5
v -2.5 0 5
v -1.5 0 5
v -1.5 0 4
v 0.5 0 4
v -1.5 0 3
v -0.5 0 3
v 0.5 0 3
v 1.5 0 3
v -6.5 0 2
v -5.5 0 2
v -2.5 0 2
v -1.5 0 2
v -0.5 0 2
v 0.5 0 2
v 1.5 0 2
v 2.5 0 2
v -5.5 0 1
v -2.5 0 1
v 0.5 0 1
v 1.5 0 1
v 2.5 0 1
v 3.5 0 1
v 2.5 0 -0
v 3.5 0 -0
v -4.5 0 -1
v -1.5 0 -1
v 0.5 0 -1
v 1.5 0 -1
v -5.5 0 -2
v -4.5 0 -2
v -1.5 0 -2
v -0.5 0 -2
v 0.5 0 -2
v 1.5 0 -2
v 2.5 0 -2
v 0.5 0 -3
v 1.5 0 -3
v -0.5 0 -4
v 0.5 0 -4
v -5.5 0 -5
v -4.5 0 -5
v -1.5 0 -5
v -0.5 0 -5
v -4.5 0 -6
v -1.5 0 -6
v 3.5 1 4
v 5.5 1 4
v 2.5 1 2
v 3.5 1 2
v 4.5 1 2
v 5.5 1 2
v 2.5 1 1
v 3.5 1 1
v 4.5 1 1
v 4.5 2 5
v 6.5 2 5
v 4.5 2 4
v 5.5 2 4
v 5.5 2 3
v 6.5 2 3
v -5.5 1 6
v -2.5 1 6
v -6.5 1 5
v -5.5 1 5
v -2.5 1 5
v -1.5 1 5
v -1.5 1 4
v 0.5 1 4
v -5.5 1 3
v -1.5 1 3
v -0.5 1 3
v 0.5 1 3
v 1.5 1 3
v -6.5 1 2
v -5.5 1 2
v -4.5 1 2
v -2.5 1 2
v -1.5 1 2
v -0.5 1 2
v 0.5 1 2
v 1.5 1 2
v -5.5 1 1
v -2.5 1 1
v 0.5 1 1
v 1.5 1 1
v 2.5 1 1
v 2.5 1 -0
v -4.5 1 -1
v -1.5 1 -1
v 0.5 1 -1
v 1.5 1 -1
v -5.5 1 -2
v -4.5 1 -2
v -1.5 1 -2
v -0.5 1 -2
v 0.5 1 -2
v 1.5 1 -2
v 2.5 1 -2
v 0.5 1 -3
v 1.5 1 -3
v -4.5 1 -4
v -0.5 1 -4
v 0.5 1 -4
v -5.5 1 -5
v -4.5 1 -5
v -3.5 1 -5
v -1.5 1 -5
v -0.5 1 -5
v -4.5 1 -6
v -1.5 1 -6
v -5.5 2 5
v -2.5 2 5
v 3.5 2 4
v 4.5 2 4
v -5.5 2 3
v -4.5 2 3
v -5.5 2 2
v -4.5 2 2
v -2.5 2 2
v 1.5 2 2
v 3.5 2 2
v 4.5 2 2
v 1.5 2 1
v 2.5 2 1
v 3.5 2 1
v 4.5 2 1
v 2.5 2 -0
v 3.5 2 -0
v -4.5 2 -2
v -1.5 2 -2
v -4.5 2 -4
v -3.5 2 -4
v -4.5 2 -5
v -3.5 2 -5
v -1.5 2 -5
v 4.5 3 5
v 6.5 3 5
v 5.5 3 3
v 6.5 3 3
v 4.5 3 2
v 5.5 3 2

# faces
f 3/2/1 2/2/1 1/2/1
f 4/2/1 2/2/1 3/2/1
f 11/2/1 6/2/1 5/2/1
f 12/2/1 6/2/1 11/2/1
f 14/2/1 8/2/1 7/2/1
f 15/2/1 8/2/1 14/2/1
f 16/2/1 10/2/1 9/2/1
f 17/2/1 10/2/1 16/2/1
f 18/2/1 13/2/1 12/2/1
f 19/1/1 14/1/1 13/1/1
f 19/2/1 13/2/1 18/2/1
f 20/1/1 14/1/1 19/1/1
f 25/2/1 22/2/1 21/2/1
f 26/2/1 22/2/1 25/2/1
f 28/2/1 24/2/1 23/2/1
f 29/2/1 24/2/1 28/2/1
f 30/2/1 27/2/1 26/2/1
f 31/1/1 28/1/1 27/1/1
f 31/2/1 27/2/1 30/2/1
f 32/1/1 28/1/1 31/1/1
f 35/3/1 34/3/1 33/3/1
f 36/3/1 34/3/1 35/3/1
f 41/3/1 38/3/1 37/3/1
f 42/3/1 38/3/1 41/3/1
f 43/3/1 40/3/1 39/3/1
f 44/3/1 40/3/1 43/3/1
f 48/3/1 46/3/1 45/3/1
f 49/3/1 46/3/1 48/3/1
f 50/3/1 48/3/1 47/3/1
f 51/3/1 48/3/1 50/3/1
f 54/3/1 53/3/1 52/3/1
f 55/3/1 53/3/1 54/3/1
f 58/3/1 57/3/1 56/3/1
f 59/3/1 57/3/1 58/3/1
f 63/3/1 61/3/1 60/3/1
f 63/3/1 62/3/1 61/3/1
f 64/3/1 62/3/1 63/3/1
f 65/2/2 66/2/2 69/2/2
f 69/2/2 66/2/2 70/2/2
f 67/2/2 68/2/2 71/2/2
f 71/2/2 68/2/2 72/2/2
f 70/2/2 71/2/2 73/2/2
f 73/2/2 71/2/2 74/2/2
f 75/2/2 76/2/2 83/2/2
f 83/2/2 76/2/2 84/2/2
f 77/2/2 78/2/2 85/2/2
f 85/2/2 78/2/2 86/2/2
f 79/2/2 80/2/2 87/2/2
f 87/2/2 80/2/2 88/2/2
f 81/2/2 82/2/2 89/2/2
f 89/2/2 82/2/2 90/2/2
f 88/2/2 89/2/2 91/2/2
f 91/2/2 89/2/2 92/2/2
f 93/2/2 94/2/2 95/2/2
f 95/2/2 94/2/2 96/2/2
f 97/3/2 98/3/2 101/3/2
f 101/3/2 98/3/2 102/3/2
f 99/3/2 100/3/2 103/3/2
f 103/3/2 100/3/2 104/3/2
f 105/3/2 106/3/2 109/3/2
f 109/3/2 106/3/2 110/3/2
f 107/3/2 108/3/2 111/3/2
f 111/3/2 108/3/2 112/3/2
f 113/3/2 114/3/2 117/3/2
f 117/3/2 114/3/2 118/3/2
f 115/3/2 116/3/2 119/3/2
f 119/3/2 116/3/2 120/3/2
f 121/3/2 122/3/2 123/3/2
f 123/3/2 122/3/2 124/3/2
f 124/3/2 122/3/2 125/3/2
f 126/3/2 127/3/2 128/3/2
f 128/3/2 127/3/2 129/3/2
f 130/3/2 131/3/2 132/3/2
f 132/3/2 131/3/2 133/3/2
f 133/3/2 131/3/2 134/3/2
f 134/3/2 131/3/2 135/3/2
f 136/3/2 137/3/2 138/3/2
f 138/3/2 137/3/2 139/3/2
f 142/2/3 141/2/3 140/2/3
f 143/2/3 141/2/3 142/2/3
f 146/2/3 145/2/3 144/2/3
f 147/2/3 145/2/3 146/2/3
f 150/2/3 148/2/3 147/2/3
f 151/2/3 148/2/3 150/2/3
f 152/2/3 150/2/3 149/2/3
f 153/2/3 150/2/3 152/2/3
f 156/3/3 155/3/3 154/3/3
f 157/3/3 155/3/3 156/3/3
f 160/3/3 159/3/3 158/3/3
f 161/3/3 159/3/3 160/3/3
f 164/3/3 163/3/3 162/3/3
f 165/3/3 164/3/3 162/3/3
f 166/3/3 164/3/3 165/3/3
f 169/3/3 168/3/3 167/3/3
f 170/3/3 168/3/3 169/3/3
f 174/3/3 172/3/3 171/3/3
f 174/3/3 173/3/3 172/3/3
f 175/3/3 173/3/3 174/3/3
f 176/3/3 173/3/3 175/3/3
f 177/3/3 173/3/3 176/3/3
f 180/3/3 179/3/3 178/3/3
f 181/3/3 179/3/3 180/3/3
f 184/2/3 183/2/3 182/2/3
f 185/2/3 183/2/3 184/2/3
f 188/3/3 187/3/3 186/3/3
f 189/3/3 187/3/3 188/3/3
f 192/2/3 191/2/3 190/2/3
f 193/2/3 191/2/3 192/2/3
f 196/2/3 194/2/3 193/2/3
f 197/2/3 194/2/3 196/2/3
f 198/2/3 196/2/3 195/2/3
f 199/2/3 196/2/3 198/2/3
f 200/3/3 199/3/3 198/3/3
f 201/3/3 199/3/3 200/3/3
f 202/3/4 203/3/4 204/3/4
f 204/3/4 203/3/4 205/3/4
f 206/3/4 207/3/4 208/3/4
f 208/3/4 207/3/4 209/3/4
f 210/2/4 211/2/4 212/2/4
f 212/2/4 211/2/4 213/2/4
f 213/1/4 214/1/4 215/1/4
f 215/1/4 214/1/4 216/1/4
f 215/2/4 216/2/4 218/2/4
f 218/2/4 216/2/4 219/2/4
f 217/2/4 218/2/4 220/2/4
f 220/2/4 218/2/4 221/2/4
f 222/3/4 223/3/4 224/3/4
f 224/3/4 223/3/4 225/3/4
f 226/3/4 227/3/4 229/3/4
f 227/3/4 228/3/4 229/3/4
f 229/3/4 228/3/4 230/3/4
f 231/2/4 232/2/4 233/2/4
f 233/2/4 232/2/4 234/2/4
f 235/3/4 236/3/4 237/3/4
f 237/3/4 236/3/4 238/3/4
f 238/3/4 239/3/4 240/3/4
f 240/3/4 239/3/4 241/3/4
f 242/3/4 243/3/4 244/3/4
f 244/3/4 243/3/4 245/3/4
f 246/3/4 247/3/4 249/3/4
f 247/3/4 248/3/4 249/3/4
f 249/3/4 248/3/4 250/3/4
f 251/3/4 252/3/4 253/3/4
f 253/3/4 252/3/4 254/3/4
f 255/3/4 256/3/4 257/3/4
f 257/3/4 256/3/4 258/3/4
f 259/3/4 260/3/4 261/3/4
f 261/3/4 260/3/4 262/3/4
f 263/2/4 264/2/4 265/2/4
f 265/2/4 264/2/4 266/2/4
f 266/1/4 267/1/4 268/1/4
f 268/1/4 267/1/4 269/1/4
f 268/2/4 269/2/4 271/2/4
f 271/2/4 269/2/4 272/2/4
f 270/2/4 271/2/4 273/2/4
f 273/2/4 271/2/4 274/2/4
f 275/2/4 276/2/4 277/2/4
f 277/2/4 276/2/4 278/2/4
f 282/2/5 280/2/5 279/2/5
f 283/2/5 280/2/5 282/2/5
f 285/2/5 282/2/5 281/2/5
f 285/2/5 284/2/5 283/2/5
f 285/2/5 283/2/5 282/2/5
f 287/2/5 285/2/5 281/2/5
f 287/3/5 286/3/5 285/3/5
f 288/3/5 286/3/5 287/3/5
f 289/3/5 286/3/5 288/3/5
f 291/2/5 287/2/5 281/2/5
f 292/2/5 287/2/5 291/2/5
f 293/2/5 287/2/5 292/2/5
f 294/2/5 287/2/5 293/2/5
f 295/3/5 290/3/5 289/3/5
f 295/3/5 289/3/5 288/3/5
f 296/3/5 290/3/5 295/3/5
f 297/3/5 290/3/5 296/3/5
f 299/2/5 293/2/5 292/2/5
f 300/2/5 293/2/5 299/2/5
f 301/3/5 298/3/5 297/3/5
f 301/3/5 297/3/5 296/3/5
f 302/3/5 298/3/5 301/3/5
f 303/3/5 298/3/5 302/3/5
f 305/3/5 304/3/5 303/3/5
f 305/3/5 303/3/5 302/3/5
f 306/3/5 304/3/5 305/3/5
f 310/3/5 305/3/5 302/3/5
f 312/2/5 308/2/5 307/2/5
f 313/2/5 308/2/5 312/2/5
f 315/3/5 310/3/5 309/3/5
f 316/3/5 305/3/5 310/3/5
f 316/3/5 310/3/5 315/3/5
f 317/3/5 305/3/5 316/3/5
f 318/3/5 315/3/5 314/3/5
f 318/3/5 316/3/5 315/3/5
f 319/3/5 316/3/5 318/3/5
f 320/2/5 314/2/5 313/2/5
f 320/2/5 312/2/5 311/2/5
f 320/3/5 318/3/5 314/3/5
f 320/2/5 313/2/5 312/2/5
f 321/3/5 318/3/5 320/3/5
f 322/2/5 320/2/5 311/2/5
f 323/2/5 320/2/5 322/2/5
f 324/2/5 320/2/5 323/2/5
f 325/2/5 320/2/5 324/2/5
f 326/2/5 324/2/5 323/2/5
f 327/2/5 324/2/5 326/2/5
f 331/3/5 329/3/5 328/3/5
f 332/3/5 329/3/5 331/3/5
f 333/3/5 329/3/5 332/3/5
f 334/3/5 331/3/5 330/3/5
f 334/3/5 332/3/5 331/3/5
f 335/3/5 332/3/5 334/3/5
f 336/3/5 332/3/5 335/3/5
f 339/3/5 338/3/5 337/3/5
f 340/3/5 338/3/5 339/3/5
f 341/3/5 338/3/5 340/3/5
f 342/3/5 338/3/5 341/3/5
f 343/2/6 344/2/6 346/2/6
f 346/2/6 344/2/6 347/2/6
f 347/2/6 348/2/6 349/2/6
f 345/2/6 346/2/6 351/2/6
f 349/3/6 350/3/6 352/3/6
f 347/2/6 349/2/6 352/2/6
f 352/3/6 350/3/6 353/3/6
f 353/3/6 350/3/6 354/3/6
f 345/2/6 351/2/6 356/2/6
f 356/2/6 351/2/6 357/2/6
f 347/2/6 352/2/6 359/2/6
f 359/2/6 352/2/6 360/2/6
f 354/3/6 355/3/6 361/3/6
f 353/3/6 354/3/6 361/3/6
f 361/3/6 355/3/6 362/3/6
f 362/3/6 355/3/6 363/3/6
f 357/2/6 358/2/6 364/2/6
f 358/2/6 359/2/6 364/2/6
f 364/2/6 359/2/6 365/2/6
f 362/3/6 363/3/6 366/3/6
f 366/3/6 363/3/6 367/3/6
f 367/3/6 368/3/6 369/3/6
f 367/3/6 369/3/6 373/3/6
f 370/2/6 371/2/6 375/2/6
f 375/2/6 371/2/6 376/2/6
f 372/3/6 373/3/6 378/3/6
f 373/3/6 369/3/6 379/3/6
f 378/3/6 373/3/6 379/3/6
f 379/3/6 369/3/6 380/3/6
f 377/3/6 378/3/6 381/3/6
f 378/3/6 379/3/6 381/3/6
f 381/3/6 379/3/6 382/3/6
f 374/2/6 375/2/6 383/2/6
f 376/2/6 377/2/6 384/2/6
f 377/3/6 381/3/6 384/3/6
f 384/3/6 381/3/6 385/3/6
f 374/2/6 383/2/6 386/2/6
f 386/2/6 383/2/6 387/2/6
f 376/2/6 384/2/6 389/2/6
f 389/2/6 384/2/6 390/2/6
f 387/2/6 388/2/6 391/2/6
f 388/2/6 389/2/6 391/2/6
f 391/2/6 389/2/6 392/2/6
f 393/2/6 394/2/6 397/2/6
f 397/2/6 394/2/6 398/2/6
f 397/1/6 398/1/6 399/1/6
f 398/2/6 394/2/6 400/2/6
f 399/1/6 398/1/6 400/1/6
f 400/2/6 394/2/6 401/2/6
f 395/3/6 396/3/6 403/3/6
f 403/3/6 396/3/6 404/3/6
f 403/3/6 404/3/6 405/3/6
f 402/3/6 403/3/6 405/3/6
f 405/3/6 404/3/6 406/3/6
f 406/3/6 404/3/6 407/3/6
f 407/3/6 404/3/6 408/3/6
f 406/3/6 407/3/6 409/3/6
f 409/3/6 407/3/6 410/3/6
f 411/2/6 412/2/6 413/2/6
f 413/2/6 412/2/6 414/2/6
f 413/1/6 414/1/6 415/1/6
f 414/2/6 412/2/6 416/2/6
f 415/1/6 414/1/6 416/1/6
f 416/2/6 412/2/6 417/2/6
f 418/3/6 419/3/6 420/3/6
f 420/3/6 419/3/6 421/3/6
f 418/3/6 420/3/6 422/3/6
f 422/3/6 420/3/6 423/3/6
